  0
SECTION
  2
HEADER
  9
$ACADVER
  1
AC1009
  9
$INSBASE
 10
0.0
 20
0.0
 30
0.0
  9
$EXTMIN
 10
0.0
 20
0.0
 30
0.0
  9
$EXTMAX
 10
64.886304525888988
 20
64.886304525888988
 30
0.0
  9
$LIMMIN
 10
0.0
 20
0.0
  9
$LIMMAX
 10
64.886304525888988
 20
64.886304525888988
  9
$ORTHOMODE
 70
     0
  9
$REGENMODE
 70
     1
  9
$FILLMODE
 70
     1
  9
$QTEXTMODE
 70
     0
  9
$MIRRTEXT
 70
     0
  9
$DRAGMODE
 70
     2
  9
$LTSCALE
 40
1.0
  9
$OSMODE
 70
     0
  9
$ATTMODE
 70
     1
  9
$TEXTSIZE
 40
0.2
  9
$TRACEWID
 40
0.05
  9
$TEXTSTYLE
  7
STANDARD
  9
$CLAYER
  8
0
  9
$CELTYPE
  6
BYLAYER
  9
$CECOLOR
 62
   256
  9
$DIMSCALE
 40
1.0
  9
$DIMASZ
 40
1.7999999999999989
  9
$DIMEXO
 40
0.0625
  9
$DIMDLI
 40
0.38
  9
$DIMRND
 40
0.0
  9
$DIMDLE
 40
0.0
  9
$DIMEXE
 40
0.18
  9
$DIMTP
 40
0.0
  9
$DIMTM
 40
0.0
  9
$DIMTXT
 40
1.7999999999999989
  9
$DIMCEN
 40
0.09
  9
$DIMTSZ
 40
0.0
  9
$DIMTOL
 70
     0
  9
$DIMLIM
 70
     0
  9
$DIMTIH
 70
     1
  9
$DIMTOH
 70
     1
  9
$DIMSE1
 70
     0
  9
$DIMSE2
 70
     0
  9
$DIMTAD
 70
     0
  9
$DIMZIN
 70
     0
  9
$DIMBLK
  1

  9
$DIMASO
 70
     1
  9
$DIMSHO
 70
     1
  9
$DIMPOST
  1

  9
$DIMAPOST
  1

  9
$DIMALT
 70
     0
  9
$DIMALTD
 70
     2
  9
$DIMALTF
 40
25.399999999999999
  9
$DIMLFAC
 40
1.0
  9
$DIMTOFL
 70
     0
  9
$DIMTVP
 40
0.0
  9
$DIMTIX
 70
     0
  9
$DIMSOXD
 70
     0
  9
$DIMSAH
 70
     0
  9
$DIMBLK1
  1

  9
$DIMBLK2
  1

  9
$DIMSTYLE
  2
STANDARD
  9
$DIMCLRD
 70
     0
  9
$DIMCLRE
 70
     0
  9
$DIMCLRT
 70
     0
  9
$DIMTFAC
 40
1.0
  9
$DIMGAP
 40
0.09
  9
$LUNITS
 70
     2
  9
$LUPREC
 70
     4
  9
$SKETCHINC
 40
0.1
  9
$FILLETRAD
 40
0.0
  9
$AUNITS
 70
     0
  9
$AUPREC
 70
     0
  9
$MENU
  1
.
  9
$ELEVATION
 40
0.0
  9
$PELEVATION
 40
0.0
  9
$THICKNESS
 40
0.0
  9
$LIMCHECK
 70
     0
  9
$BLIPMODE
 70
     0
  9
$CHAMFERA
 40
0.0
  9
$CHAMFERB
 40
0.0
  9
$SKPOLY
 70
     0
  9
$TDCREATE
 40
2456902.2091223262
  9
$TDUPDATE
 40
2456902.2091223262
  9
$TDINDWG
 40
0.0000028472
  9
$TDUSRTIMER
 40
0.0000028472
  9
$USRTIMER
 70
     1
  9
$ANGBASE
 50
0.0
  9
$ANGDIR
 70
     0
  9
$PDMODE
 70
     0
  9
$PDSIZE
 40
0.0
  9
$PLINEWID
 40
0.0
  9
$COORDS
 70
     0
  9
$SPLFRAME
 70
     0
  9
$SPLINETYPE
 70
     6
  9
$SPLINESEGS
 70
     8
  9
$ATTDIA
 70
     1
  9
$ATTREQ
 70
     1
  9
$HANDLING
 70
     1
  9
$HANDSEED
  5
178
  9
$SURFTAB1
 70
     6
  9
$SURFTAB2
 70
     6
  9
$SURFTYPE
 70
     6
  9
$SURFU
 70
     6
  9
$SURFV
 70
     6
  9
$UCSNAME
  2

  9
$UCSORG
 10
0.0
 20
0.0
 30
0.0
  9
$UCSXDIR
 10
1.0
 20
0.0
 30
0.0
  9
$UCSYDIR
 10
0.0
 20
1.0
 30
0.0
  9
$PUCSNAME
  2

  9
$PUCSORG
 10
0.0
 20
0.0
 30
0.0
  9
$PUCSXDIR
 10
1.0
 20
0.0
 30
0.0
  9
$PUCSYDIR
 10
0.0
 20
1.0
 30
0.0
  9
$USERI1
 70
     0
  9
$USERI2
 70
     0
  9
$USERI3
 70
     0
  9
$USERI4
 70
     0
  9
$USERI5
 70
     0
  9
$USERR1
 40
0.0
  9
$USERR2
 40
0.0
  9
$USERR3
 40
0.0
  9
$USERR4
 40
0.0
  9
$USERR5
 40
0.0
  9
$WORLDVIEW
 70
     1
  9
$SHADEDGE
 70
     3
  9
$SHADEDIF
 70
    70
  9
$TILEMODE
 70
     1
  9
$MAXACTVP
 70
    64
  9
$PLIMCHECK
 70
     0
  9
$PEXTMIN
 10
0.0
 20
0.0
 30
0.0
  9
$PEXTMAX
 10
64.886304525888988
 20
64.886304525888988
 30
0.0
  9
$PLIMMIN
 10
0.0
 20
0.0
  9
$PLIMMAX
 10
64.886304525888988
 20
64.886304525888988
  9
$UNITMODE
 70
     0
  9
$VISRETAIN
 70
     1
  9
$PLINEGEN
 70
     0
  9
$PSLTSCALE
 70
     1
  0
ENDSEC
  0
SECTION
  2
TABLES
  0
TABLE
  2
VPORT
 70
     1
  0
VPORT
  2
*ACTIVE
 70
     0
 10
0.0
 20
0.0
 11
1.0
 21
1.0
 12
0.0
 22
0.0
 13
0.0
 23
0.0
 14
1.0
 24
1.0
 15
0.0
 25
0.0
 16
0.0
 26
0.0
 36
1.0
 17
0.0
 27
0.0
 37
0.0
 40
64.886304525888988
 41
1.0
 42
50.0
 43
0.0
 44
0.0
 50
0.0
 51
0.0
 71
     0
 72
   100
 73
     1
 74
     1
 75
     0
 76
     0
 77
     0
 78
     0
  0
ENDTAB
  0
TABLE
  2
LTYPE
 70
    59
  0
LTYPE
  2
CONTINUOUS
 70
     0
  3
Solid line
 72
    65
 73
     0
 40
0.0
  0
LTYPE
  2
BY_STANDARD
 70
     0
  3
By Standard ____________    ____    ____   _
 72
    65
 73
     6
 40
1.2402999999999991
 49
0.6614
 49
-0.0827
 49
0.1654
 49
-0.0827
 49
0.1654
 49
-0.0827
  0
LTYPE
  2
CHAIN
 70
     0
  3
Chain ____ _ ____ _ ____ _ ____ _ ____ _ ____
 72
    65
 73
     4
 40
0.7087
 49
0.4724000000000001
 49
-0.0591
 49
0.1181
 49
-0.0591
  0
LTYPE
  2
DASH_DOT
 70
     0
  3
Dash dot __ . __ . __ . __ . __ . __ . __ . __
 72
    65
 73
     4
 40
0.37
 49
0.24
 49
-0.06
 49
0.01
 49
-0.06
  0
LTYPE
  2
DOUBLE_DASH_DOT
 70
     0
  3
Double-Dash Dot __ __ . __ __ . __ __ . __ _
 72
    65
 73
     6
 40
0.4398
 49
0.24
 49
-0.06
 49
0.0098
 49
-0.06
 49
0.01
 49
-0.06
  0
LTYPE
  2
DASH_TRIPLE_DOT
 70
     0
  3
Dash Triple-Dot _ . . . _ . . . _ . . . _
 72
    65
 73
     8
 40
0.51
 49
0.24
 49
-0.06
 49
0.01
 49
-0.06
 49
0.01
 49
-0.06
 49
0.01
 49
-0.06
  0
LTYPE
  2
DASHED
 70
     0
  3
Dashed __ __ __ __ __ __ __ __ __ __ __ __ __ _
 72
    65
 73
     2
 40
0.2067
 49
0.1654
 49
-0.0413
  0
LTYPE
  2
DASH_DOUBLE_DOT
 70
     0
  3
Dash Double-Dot __ . . __ . . __ . . __ . .
 72
    65
 73
     6
 40
0.4398
 49
0.24
 49
-0.06
 49
0.0098
 49
-0.06
 49
0.01
 49
-0.06
  0
LTYPE
  2
DASHED_SPACE
 70
     0
  3
Dashed Space __ __ __ __ __ __ __ __ __ __ __ _
 72
    65
 73
     2
 40
0.2067
 49
0.1654
 49
-0.0413
  0
LTYPE
  2
DOTTED
 70
     0
  3
Dotted . . . . . . . . . . . . . . . . . . . . 
 72
    65
 73
     2
 40
0.0482
 49
0.0069
 49
-0.0413
  0
LTYPE
  2
DOUBLE_DASH_CHAIN
 70
     0
  3
Double-Dash Chain ______  __  __  ______  __  _
 72
    65
 73
     6
 40
1.2402999999999991
 49
0.6614
 49
-0.0827
 49
0.1654
 49
-0.0827
 49
0.1654
 49
-0.0827
  0
LTYPE
  2
DOUBLE_DASH_DOUBLE_DOT
 70
     0
  3
Double-Dash Double-dot _ _ . . _ _ . . _
 72
    65
 73
     8
 40
0.7400000000000001
 49
0.24
 49
-0.06
 49
0.24
 49
-0.06
 49
0.01
 49
-0.06
 49
0.01
 49
-0.06
  0
LTYPE
  2
DOUBLE_DASH_TRIPLE_DOT
 70
     0
  3
Double Dash Triple Dot __ __ . . . __ __ . .
 72
    65
 73
    10
 40
0.8100000000000001
 49
0.24
 49
-0.06
 49
0.24
 49
-0.06
 49
0.01
 49
-0.06
 49
0.01
 49
-0.06
 49
0.01
 49
-0.06
  0
LTYPE
  2
LONG_DASH_DOTTED
 70
     0
  3
Long Dash Dotted ____ . ____ . ____ . ____ . _
 72
    65
 73
     4
 40
0.3543
 49
0.2362
 49
-0.0295
 49
0.0591
 49
-0.0295
  0
LTYPE
  2
LONG_DASH_DOUBLE_DOT
 70
     0
  3
Long Dash Double Dot ________  .  .  ________  
 72
    65
 73
     6
 40
0.6799999999999999
 49
0.48
 49
-0.06
 49
0.01
 49
-0.06
 49
0.01
 49
-0.06
  0
LTYPE
  2
LONG_DASH_TRIPLE_DOT
 70
     0
  3
Long Dash Triple Dot ____ ... ____ ... ____
 72
    65
 73
     8
 40
0.3689
 49
0.2362
 49
-0.0295
 49
0.0049
 49
-0.0295
 49
0.0049
 49
-0.0295
 49
0.0049
 49
-0.0295
  0
LTYPE
  2
BORDER
 70
     0
  3
Border __ __ . __ __ . __ __ . __ __ . __ __ .
 72
    65
 73
     6
 40
1.75
 49
0.5
 49
-0.25
 49
0.5
 49
-0.25
 49
0.0
 49
-0.25
  0
LTYPE
  2
BORDER2
 70
     0
  3
Border (.5x) __.__.__.__.__.__.__.__.__.__.__.
 72
    65
 73
     6
 40
0.875
 49
0.25
 49
-0.125
 49
0.25
 49
-0.125
 49
0.0
 49
-0.125
  0
LTYPE
  2
BORDERX2
 70
     0
  3
Border (2x) ____  ____  .  ____  ____  .  ___
 72
    65
 73
     6
 40
3.5
 49
1.0
 49
-0.5
 49
1.0
 49
-0.5
 49
0.0
 49
-0.5
  0
LTYPE
  2
CENTER
 70
     0
  3
Center ____ _ ____ _ ____ _ ____ _ ____ _ ____
 72
    65
 73
     4
 40
2.0
 49
1.25
 49
-0.25
 49
0.25
 49
-0.25
  0
LTYPE
  2
CENTER2
 70
     0
  3
Center (.5x) ___ _ ___ _ ___ _ ___ _ ___ _ ___
 72
    65
 73
     4
 40
1.125
 49
0.75
 49
-0.125
 49
0.125
 49
-0.125
  0
LTYPE
  2
CENTERX2
 70
     0
  3
Center (2x) ________  __  ________  __  _____
 72
    65
 73
     4
 40
4.0
 49
2.5
 49
-0.5
 49
0.5
 49
-0.5
  0
LTYPE
  2
DASHDOT2
 70
     0
  3
Dash dot (.5x) _._._._._._._._._._._._._._._.
 72
    65
 73
     4
 40
0.5
 49
0.25
 49
-0.125
 49
0.0
 49
-0.125
  0
LTYPE
  2
DASHDOTX2
 70
     0
  3
Dash dot (2x) ____  .  ____  .  ____  .  ___
 72
    65
 73
     4
 40
2.0
 49
1.0
 49
-0.5
 49
0.0
 49
-0.5
  0
LTYPE
  2
DASHED2
 70
     0
  3
Dashed (.5x) _ _ _ _ _ _ _ _ _ _ _ _ _ _ _ _ _
 72
    65
 73
     2
 40
0.375
 49
0.25
 49
-0.125
  0
LTYPE
  2
DASHEDX2
 70
     0
  3
Dashed (2x) ____  ____  ____  ____  ____  ___
 72
    65
 73
     2
 40
1.5
 49
1.0
 49
-0.5
  0
LTYPE
  2
DIVIDE
 70
     0
  3
Divide ____ . . ____ . . ____ . . ____ . . ____
 72
    65
 73
     6
 40
1.25
 49
0.5
 49
-0.25
 49
0.0
 49
-0.25
 49
0.0
 49
-0.25
  0
LTYPE
  2
DIVIDE2
 70
     0
  3
Divide (.5x) __..__..__..__..__..__..__..__.._
 72
    65
 73
     6
 40
0.625
 49
0.25
 49
-0.125
 49
0.0
 49
-0.125
 49
0.0
 49
-0.125
  0
LTYPE
  2
DIVIDEX2
 70
     0
  3
Divide (2x) ________  .  .  ________  .  .  _
 72
    65
 73
     6
 40
2.5
 49
1.0
 49
-0.5
 49
0.0
 49
-0.5
 49
0.0
 49
-0.5
  0
LTYPE
  2
DOT
 70
     0
  3
Dot . . . . . . . . . . . . . . . . . . . . . .
 72
    65
 73
     2
 40
0.25
 49
0.0
 49
-0.25
  0
LTYPE
  2
DOT2
 70
     0
  3
Dot (.5x) .....................................
 72
    65
 73
     2
 40
0.125
 49
0.0
 49
-0.125
  0
LTYPE
  2
DOTX2
 70
     0
  3
Dot (2x) .  .  .  .  .  .  .  .  .  .  .  .  . 
 72
    65
 73
     2
 40
0.5
 49
0.0
 49
-0.5
  0
LTYPE
  2
HIDDEN
 70
     0
  3
Hidden __ __ __ __ __ __ __ __ __ __ __ __ __ _
 72
    65
 73
     2
 40
0.375
 49
0.25
 49
-0.125
  0
LTYPE
  2
HIDDEN2
 70
     0
  3
Hidden (.5x) _ _ _ _ _ _ _ _ _ _ _ _ _ _ _ _ _
 72
    65
 73
     2
 40
0.1875
 49
0.125
 49
-0.0625
  0
LTYPE
  2
HIDDENX2
 70
     0
  3
Hidden (2x) ____ ____ ____ ____ ____ ____ ____
 72
    65
 73
     2
 40
0.75
 49
0.5
 49
-0.25
  0
LTYPE
  2
PHANTOM
 70
     0
  3
Phantom ______  __  __  ______  __  __  ______
 72
    65
 73
     6
 40
2.5
 49
1.25
 49
-0.25
 49
0.25
 49
-0.25
 49
0.25
 49
-0.25
  0
LTYPE
  2
PHANTOM2
 70
     0
  3
Phantom (.5x) ___ _ _ ___ _ _ ___ _ _ ___ _ _
 72
    65
 73
     6
 40
1.25
 49
0.625
 49
-0.125
 49
0.125
 49
-0.125
 49
0.125
 49
-0.125
  0
LTYPE
  2
PHANTOMX2
 70
     0
  3
Phantom (2x) ____________    ____    ____   _
 72
    65
 73
     6
 40
5.0
 49
2.5
 49
-0.5
 49
0.5
 49
-0.5
 49
0.5
 49
-0.5
  0
LTYPE
  2
ACAD_ISO02W100
 70
     0
  3
ISO dash __ __ __ __ __ __ __ __ __ __ __ __ __
 72
    65
 73
     2
 40
0.59
 49
0.47
 49
-0.12
  0
LTYPE
  2
ACAD_ISO03W100
 70
     0
  3
ISO dash space __    __    __    __    __    __
 72
    65
 73
     2
 40
1.179999999999999
 49
0.47
 49
-0.71
  0
LTYPE
  2
ACAD_ISO04W100
 70
     0
  3
ISO long-dash dot ____ . ____ . ____ . ____ . _
 72
    65
 73
     4
 40
1.179999999999999
 49
0.9399999999999998
 49
-0.12
 49
0.0
 49
-0.12
  0
LTYPE
  2
ACAD_ISO05W100
 70
     0
  3
ISO long-dash double-dot ____ .. ____ .. ____ .
 72
    65
 73
     6
 40
1.2999999999999989
 49
0.9399999999999998
 49
-0.12
 49
0.0
 49
-0.12
 49
0.0
 49
-0.12
  0
LTYPE
  2
ACAD_ISO06W100
 70
     0
  3
ISO long-dash triple-dot ____ ... ____ ... ____
 72
    65
 73
     8
 40
1.419999999999999
 49
0.9399999999999998
 49
-0.12
 49
0.0
 49
-0.12
 49
0.0
 49
-0.12
 49
0.0
 49
-0.12
  0
LTYPE
  2
ACAD_ISO07W100
 70
     0
  3
ISO dot . . . . . . . . . . . . . . . . . . . .
 72
    65
 73
     2
 40
0.12
 49
0.0
 49
-0.12
  0
LTYPE
  2
ACAD_ISO08W100
 70
     0
  3
ISO long-dash short-dash ____ __ ____ __ ____ _
 72
    65
 73
     4
 40
0.95
 49
0.47
 49
-0.12
 49
0.24
 49
-0.12
  0
LTYPE
  2
ACAD_ISO09W100
 70
     0
  3
ISO long-dash double-short-dash ____ __ __ ____
 72
    65
 73
     6
 40
1.3100000000000001
 49
0.47
 49
-0.12
 49
0.24
 49
-0.12
 49
0.24
 49
-0.12
  0
LTYPE
  2
ACAD_ISO10W100
 70
     0
  3
ISO dash dot __ . __ . __ . __ . __ . __ . __ .
 72
    65
 73
     4
 40
0.71
 49
0.47
 49
-0.12
 49
0.0
 49
-0.12
  0
LTYPE
  2
ACAD_ISO11W100
 70
     0
  3
ISO double-dash dot __ __ . __ __ . __ __ . __ 
 72
    65
 73
     6
 40
1.2999999999999989
 49
0.47
 49
-0.12
 49
0.47
 49
-0.12
 49
0.0
 49
-0.12
  0
LTYPE
  2
ACAD_ISO12W100
 70
     0
  3
ISO dash double-dot __ . . __ . . __ . . __ . .
 72
    65
 73
     6
 40
0.8299999999999999
 49
0.47
 49
-0.12
 49
0.0
 49
-0.12
 49
0.0
 49
-0.12
  0
LTYPE
  2
ACAD_ISO13W100
 70
     0
  3
ISO double-dash double-dot __ __ . . __ __ . . 
 72
    65
 73
     8
 40
1.419999999999999
 49
0.47
 49
-0.12
 49
0.47
 49
-0.12
 49
0.0
 49
-0.12
 49
0.0
 49
-0.12
  0
LTYPE
  2
ACAD_ISO14W100
 70
     0
  3
ISO dash triple-dot __ . . . __ . . . __ . . . 
 72
    65
 73
     8
 40
0.95
 49
0.47
 49
-0.12
 49
0.0
 49
-0.12
 49
0.0
 49
-0.12
 49
0.0
 49
-0.12
  0
LTYPE
  2
ACAD_ISO15W100
 70
     0
  3
ISO double-dash triple-dot __ __ . . . __ __ . 
 72
    65
 73
    10
 40
1.5399999999999989
 49
0.47
 49
-0.12
 49
0.47
 49
-0.12
 49
0.0
 49
-0.12
 49
0.0
 49
-0.12
 49
0.0
 49
-0.12
  0
LTYPE
  2
FENCELINE1
 70
     0
  3
Fenceline circle ----0-----0----0-----0----0---
 72
    65
 73
     4
 40
1.45
 49
0.25
 49
-0.1
 49
-0.1
 49
1.0
  0
LTYPE
  2
FENCELINE2
 70
     0
  3
Fenceline square ----[]-----[]----[]-----[]----
 72
    65
 73
     4
 40
1.45
 49
0.25
 49
-0.1
 49
-0.1
 49
1.0
  0
LTYPE
  2
TRACKS
 70
     0
  3
Tracks -|-|-|-|-|-|-|-|-|-|-|-|-|-|-|-|-|-|-|-|
 72
    65
 73
     2
 40
0.3
 49
0.15
 49
0.15
  0
LTYPE
  2
BATTING
 70
     0
  3
Batting SSSSSSSSSSSSSSSSSSSSSSSSSSSSSSSSSSSSSSS
 72
    65
 73
     4
 40
0.4001000000000001
 49
0.0001
 49
-0.1
 49
-0.2
 49
-0.1
  0
LTYPE
  2
HOT_WATER_SUPPLY
 70
     0
  3
Hot water supply ---- HW ---- HW ---- HW ----
 72
    65
 73
     3
 40
0.9
 49
0.5
 49
-0.2
 49
-0.2
  0
LTYPE
  2
GAS_LINE
 70
     0
  3
Gas line ----GAS----GAS----GAS----GAS----GAS---
 72
    65
 73
     3
 40
0.95
 49
0.5
 49
-0.2
 49
-0.25
  0
LTYPE
  2
ZIGZAG
 70
     0
  3
Zig zag /\/\/\/\/\/\/\/\/\/\/\/\/\/\/\/\/\/\/\/
 72
    65
 73
     4
 40
0.8001000000000001
 49
0.0001
 49
-0.2
 49
-0.4
 49
-0.2
  0
ENDTAB
  0
TABLE
  2
LAYER
 70
     1
  0
LAYER
  2
0
 70
     0
 62
     7
  6
CONTINUOUS
  0
ENDTAB
  0
TABLE
  2
STYLE
 70
     3
  0
STYLE
  2
STANDARD
 70
     0
 40
0.0
 41
1.0
 50
0.0
 71
     0
 42
0.2
  3
txt
  4

  0
STYLE
  2
ANNOTATIVE
 70
     0
 40
0.0
 41
1.0
 50
0.0
 71
     0
 42
0.2
  3
txt
  4

  0
STYLE
  2

 70
     1
 40
0.0
 41
1.0
 50
0.0
 71
     0
 42
0.2
  3
ltypeshp.shx
  4

  0
ENDTAB
  0
TABLE
  2
VIEW
 70
     0
  0
ENDTAB
  0
TABLE
  2
UCS
 70
     0
  0
ENDTAB
  0
TABLE
  2
APPID
 70
     3
  0
APPID
  2
ACAD
 70
     0
  0
APPID
  2
ACADANNOTATIVE
 70
     0
  0
APPID
  2
ACAD_MLEADERVER
 70
     0
  0
ENDTAB
  0
TABLE
  2
DIMSTYLE
 70
     2
  0
DIMSTYLE
  2
STANDARD
 70
     0
  3

  4

  5

  6

  7

 40
1.0
 41
0.18
 42
0.0625
 43
0.38
 44
0.18
 45
0.0
 46
0.0
 47
0.0
 48
0.0
140
0.18
141
0.09
142
0.0
143
25.399999999999999
144
1.0
145
0.0
146
1.0
147
0.09
 71
     0
 72
     0
 73
     1
 74
     1
 75
     0
 76
     0
 77
     0
 78
     0
170
     0
171
     2
172
     0
173
     0
174
     0
175
     0
176
     0
177
     0
178
     0
  0
DIMSTYLE
  2
ANNOTATIVE
 70
     0
  3

  4

  5

  6

  7

 40
1.0
 41
0.18
 42
0.0625
 43
0.38
 44
0.18
 45
0.0
 46
0.0
 47
0.0
 48
0.0
140
0.18
141
0.09
142
0.0
143
25.399999999999999
144
1.0
145
0.0
146
1.0
147
0.09
 71
     0
 72
     0
 73
     1
 74
     1
 75
     0
 76
     0
 77
     0
 78
     0
170
     0
171
     2
172
     0
173
     0
174
     0
175
     0
176
     0
177
     0
178
     0
  0
ENDTAB
  0
ENDSEC
  0
SECTION
  2
BLOCKS
  0
BLOCK
  8
0
  2
$MODEL_SPACE
 70
     0
 10
0.0
 20
0.0
 30
0.0
  3
$MODEL_SPACE
  1

  0
ENDBLK
  5
72
  8
0
  0
BLOCK
 67
     1
  8
0
  2
$PAPER_SPACE
 70
     0
 10
0.0
 20
0.0
 30
0.0
  3
$PAPER_SPACE
  1

  0
ENDBLK
  5
6E
 67
     1
  8
0
  0
ENDSEC
  0
SECTION
  2
ENTITIES
  0
POLYLINE
  5
B6
  8
0
 66
     1
 10
0.0
 20
0.0
 30
0.0
 70
     1
  0
VERTEX
  5
B7
  8
0
 10
-1.1045205861011329
 20
29.445951677830841
 30
0.0
 42
-0.018748457411966
  0
VERTEX
  5
B8
  8
0
 10
1.1045205861011289
 20
29.445951677830841
 30
0.0
 42
-0.0655081170717398
  0
VERTEX
  5
BA
  8
0
 10
2.5645803588549838
 20
24.27239139089874
 30
0.0
 42
-0.0128166662288254
  0
VERTEX
  5
BB
  8
0
 10
3.8049627599353331
 20
24.109091949833061
 30
0.0
 42
-0.06550811707174
  0
VERTEX
  5
BC
  8
0
 10
6.5542881356081262
 20
28.728476168667509
 30
0.0
 42
-0.018748457411966
  0
VERTEX
  5
BD
  8
0
 10
8.6880580551741584
 20
28.15673424188596
 30
0.0
 42
-0.0655081170717402
  0
VERTEX
  5
BE
  8
0
 10
8.7593515643587736
 20
22.781567470698018
 30
0.0
 42
-0.0128166662288254
  0
VERTEX
  5
BF
  8
0
 10
9.9152039546343271
 20
22.302797734544509
 30
0.0
 42
-0.0655081170717402
  0
VERTEX
  5
C0
  8
0
 10
13.766432952348961
 20
26.053202484661089
 30
0.0
 42
-0.018748457411966
  0
VERTEX
  5
C1
  8
0
 10
15.67951872548187
 20
24.948681898559961
 30
0.0
 42
-0.0655081170717398
  0
VERTEX
  5
C2
  8
0
 10
14.3571874362644
 20
19.738217375689509
 30
0.0
 42
-0.0128166662288254
  0
VERTEX
  5
C3
  8
0
 10
15.349740385474281
 20
18.976604710762661
 30
0.0
 42
-0.0655081170717398
  0
VERTEX
  5
C4
  8
0
 10
20.040418113493331
 20
21.602446106277831
 30
0.0
 42
-0.0187484574119668
  0
VERTEX
  5
C5
  8
0
 10
21.602446106277839
 20
20.040418113493331
 30
0.0
 42
-0.06550811707174
  0
VERTEX
  5
C6
  8
0
 10
18.976604710762668
 20
15.349740385474281
 30
0.0
 42
-0.0128166662288254
  0
VERTEX
  5
C7
  8
0
 10
19.738217375689519
 20
14.3571874362644
 30
0.0
 42
-0.0655081170717398
  0
VERTEX
  5
C8
  8
0
 10
24.948681898559961
 20
15.679518725481881
 30
0.0
 42
-0.018748457411966
  0
VERTEX
  5
C9
  8
0
 10
26.053202484661082
 20
13.766432952348969
 30
0.0
 42
-0.06550811707174
  0
VERTEX
  5
CA
  8
0
 10
22.302797734544509
 20
9.9152039546343502
 30
0.0
 42
-0.0128166662288271
  0
VERTEX
  5
CB
  8
0
 10
22.781567470698
 20
8.7593515643587772
 30
0.0
 42
-0.06550811707174
  0
VERTEX
  5
CC
  8
0
 10
28.15673424188596
 20
8.6880580551741762
 30
0.0
 42
-0.018748457411966
  0
VERTEX
  5
CD
  8
0
 10
28.728476168667498
 20
6.5542881356081324
 30
0.0
 42
-0.0655081170717398
  0
VERTEX
  5
CE
  8
0
 10
24.109091949833061
 20
3.8049627599353411
 30
0.0
 42
-0.0128166662288254
  0
VERTEX
  5
CF
  8
0
 10
24.27239139089874
 20
2.5645803588549971
 30
0.0
 42
-0.0655081170717398
  0
VERTEX
  5
D0
  8
0
 10
29.445951677830841
 20
1.1045205861011429
 30
0.0
 42
-0.018748457411966
  0
VERTEX
  5
D1
  8
0
 10
29.445951677830841
 20
-1.10452058610114
 30
0.0
 42
-0.0655081170717398
  0
VERTEX
  5
D2
  8
0
 10
24.27239139089874
 20
-2.5645803588549838
 30
0.0
 42
-0.012816666228826
  0
VERTEX
  5
D3
  8
0
 10
24.109091949833051
 20
-3.8049627599353628
 30
0.0
 42
-0.06550811707174
  0
VERTEX
  5
D4
  8
0
 10
28.728476168667509
 20
-6.5542881356081262
 30
0.0
 42
-0.0187484574119653
  0
VERTEX
  5
D5
  8
0
 10
28.156734241885971
 20
-8.6880580551741442
 30
0.0
 42
-0.06550811707174
  0
VERTEX
  5
D6
  8
0
 10
22.781567470698011
 20
-8.7593515643587683
 30
0.0
 42
-0.012816666228826
  0
VERTEX
  5
D7
  8
0
 10
22.302797734544502
 20
-9.9152039546343556
 30
0.0
 42
-0.0655081170717398
  0
VERTEX
  5
D8
  8
0
 10
26.053202484661089
 20
-13.76643295234895
 30
0.0
 42
-0.018748457411966
  0
VERTEX
  5
D9
  8
0
 10
24.948681898559979
 20
-15.67951872548185
 30
0.0
 42
-0.06550811707174
  0
VERTEX
  5
DA
  8
0
 10
19.738217375689519
 20
-14.3571874362644
 30
0.0
 42
-0.0128166662288254
  0
VERTEX
  5
DB
  8
0
 10
18.976604710762661
 20
-15.34974038547429
 30
0.0
 42
-0.0655081170717398
  0
VERTEX
  5
DC
  8
0
 10
21.602446106277849
 20
-20.040418113493331
 30
0.0
 42
-0.0187484574119653
  0
VERTEX
  5
DD
  8
0
 10
20.040418113493349
 20
-21.602446106277821
 30
0.0
 42
-0.06550811707174
  0
VERTEX
  5
DE
  8
0
 10
15.349740385474281
 20
-18.976604710762661
 30
0.0
 42
-0.0128166662288254
  0
VERTEX
  5
DF
  8
0
 10
14.357187436264409
 20
-19.738217375689509
 30
0.0
 42
-0.0655081170717398
  0
VERTEX
  5
E0
  8
0
 10
15.67951872548189
 20
-24.94868189855994
 30
0.0
 42
-0.0187484574119653
  0
VERTEX
  5
E1
  8
0
 10
13.766432952348961
 20
-26.053202484661089
 30
0.0
 42
-0.06550811707174
  0
VERTEX
  5
E2
  8
0
 10
9.9152039546343484
 20
-22.302797734544509
 30
0.0
 42
-0.0128166662288254
  0
VERTEX
  5
E3
  8
0
 10
8.7593515643587772
 20
-22.781567470698
 30
0.0
 42
-0.0655081170717402
  0
VERTEX
  5
E4
  8
0
 10
8.6880580551741726
 20
-28.156734241885971
 30
0.0
 42
-0.018748457411966
  0
VERTEX
  5
E5
  8
0
 10
6.5542881356081093
 20
-28.728476168667509
 30
0.0
 42
-0.0655081170717398
  0
VERTEX
  5
E6
  8
0
 10
3.8049627599353371
 20
-24.109091949833061
 30
0.0
 42
-0.0128166662288249
  0
VERTEX
  5
E7
  8
0
 10
2.564580358854998
 20
-24.27239139089874
 30
0.0
 42
-0.06550811707174
  0
VERTEX
  5
E8
  8
0
 10
1.10452058610114
 20
-29.445951677830831
 30
0.0
 42
-0.018748457411966
  0
VERTEX
  5
E9
  8
0
 10
-1.104520586101112
 20
-29.445951677830841
 30
0.0
 42
-0.0655081170717398
  0
VERTEX
  5
EA
  8
0
 10
-2.5645803588549732
 20
-24.27239139089874
 30
0.0
 42
-0.0128166662288254
  0
VERTEX
  5
EB
  8
0
 10
-3.804962759935318
 20
-24.109091949833061
 30
0.0
 42
-0.0655081170717398
  0
VERTEX
  5
EC
  8
0
 10
-6.5542881356081031
 20
-28.728476168667498
 30
0.0
 42
-0.0187484574119653
  0
VERTEX
  5
ED
  8
0
 10
-8.6880580551741673
 20
-28.15673424188596
 30
0.0
 42
-0.06550811707174
  0
VERTEX
  5
EE
  8
0
 10
-8.7593515643587683
 20
-22.781567470698011
 30
0.0
 42
-0.012816666228826
  0
VERTEX
  5
EF
  8
0
 10
-9.9152039546343342
 20
-22.302797734544509
 30
0.0
 42
-0.06550811707174
  0
VERTEX
  5
F0
  8
0
 10
-13.76643295234895
 20
-26.053202484661099
 30
0.0
 42
-0.0187484574119653
  0
VERTEX
  5
F1
  8
0
 10
-15.679518725481859
 20
-24.948681898559961
 30
0.0
 42
-0.0655081170717398
  0
VERTEX
  5
F2
  8
0
 10
-14.35718743626439
 20
-19.73821737568953
 30
0.0
 42
-0.0128166662288254
  0
VERTEX
  5
F3
  8
0
 10
-15.34974038547427
 20
-18.976604710762668
 30
0.0
 42
-0.0655081170717395
  0
VERTEX
  5
F4
  8
0
 10
-20.04041811349332
 20
-21.602446106277849
 30
0.0
 42
-0.0187484574119668
  0
VERTEX
  5
F5
  8
0
 10
-21.602446106277839
 20
-20.040418113493331
 30
0.0
 42
-0.0655081170717398
  0
VERTEX
  5
F6
  8
0
 10
-18.976604710762661
 20
-15.349740385474281
 30
0.0
 42
-0.0128166662288254
  0
VERTEX
  5
F7
  8
0
 10
-19.738217375689509
 20
-14.357187436264409
 30
0.0
 42
-0.0655081170717398
  0
VERTEX
  5
F8
  8
0
 10
-24.94868189855994
 20
-15.67951872548189
 30
0.0
 42
-0.0187484574119653
  0
VERTEX
  5
F9
  8
0
 10
-26.053202484661071
 20
-13.766432952348991
 30
0.0
 42
-0.0655081170717398
  0
VERTEX
  5
FA
  8
0
 10
-22.302797734544491
 20
-9.9152039546343484
 30
0.0
 42
-0.0128166662288249
  0
VERTEX
  5
FB
  8
0
 10
-22.78156747069799
 20
-8.7593515643588002
 30
0.0
 42
-0.0655081170717402
  0
VERTEX
  5
FC
  8
0
 10
-28.156734241885971
 20
-8.6880580551741815
 30
0.0
 42
-0.0187484574119668
  0
VERTEX
  5
FD
  8
0
 10
-28.728476168667498
 20
-6.5542881356081368
 30
0.0
 42
-0.0655081170717395
  0
VERTEX
  5
FE
  8
0
 10
-24.109091949833061
 20
-3.8049627599353411
 30
0.0
 42
-0.012816666228826
  0
VERTEX
  5
FF
  8
0
 10
-24.27239139089874
 20
-2.5645803588549998
 30
0.0
 42
-0.06550811707174
  0
VERTEX
  5
100
  8
0
 10
-29.445951677830831
 20
-1.1045205861011429
 30
0.0
 42
-0.018748457411966
  0
VERTEX
  5
101
  8
0
 10
-29.445951677830841
 20
1.104520586101118
 30
0.0
 42
-0.06550811707174
  0
VERTEX
  5
102
  8
0
 10
-24.27239139089874
 20
2.56458035885497
 30
0.0
 42
-0.012816666228826
  0
VERTEX
  5
103
  8
0
 10
-24.109091949833061
 20
3.8049627599353242
 30
0.0
 42
-0.0655081170717398
  0
VERTEX
  5
104
  8
0
 10
-28.728476168667509
 20
6.5542881356080986
 30
0.0
 42
-0.0187484574119646
  0
VERTEX
  5
105
  8
0
 10
-28.156734241885971
 20
8.6880580551741478
 30
0.0
 42
-0.06550811707174
  0
VERTEX
  5
106
  8
0
 10
-22.781567470698011
 20
8.7593515643587612
 30
0.0
 42
-0.012816666228826
  0
VERTEX
  5
107
  8
0
 10
-22.302797734544509
 20
9.9152039546343183
 30
0.0
 42
-0.0655081170717398
  0
VERTEX
  5
108
  8
0
 10
-26.053202484661099
 20
13.76643295234893
 30
0.0
 42
-0.0187484574119653
  0
VERTEX
  5
109
  8
0
 10
-24.948681898559961
 20
15.67951872548187
 30
0.0
 42
-0.06550811707174
  0
VERTEX
  5
10A
  8
0
 10
-19.738217375689519
 20
14.3571874362644
 30
0.0
 42
-0.012816666228826
  0
VERTEX
  5
10B
  8
0
 10
-18.976604710762668
 20
15.34974038547427
 30
0.0
 42
-0.0655081170717398
  0
VERTEX
  5
10C
  8
0
 10
-21.602446106277839
 20
20.04041811349332
 30
0.0
 42
-0.018748457411966
  0
VERTEX
  5
10D
  8
0
 10
-20.040418113493349
 20
21.602446106277831
 30
0.0
 42
-0.06550811707174
  0
VERTEX
  5
10E
  8
0
 10
-15.3497403854743
 20
18.976604710762661
 30
0.0
 42
-0.0128166662288254
  0
VERTEX
  5
10F
  8
0
 10
-14.357187436264409
 20
19.738217375689509
 30
0.0
 42
-0.0655081170717398
  0
VERTEX
  5
110
  8
0
 10
-15.67951872548189
 20
24.94868189855994
 30
0.0
 42
-0.0187484574119653
  0
VERTEX
  5
111
  8
0
 10
-13.76643295234898
 20
26.053202484661071
 30
0.0
 42
-0.06550811707174
  0
VERTEX
  5
112
  8
0
 10
-9.9152039546343502
 20
22.302797734544502
 30
0.0
 42
-0.0128166662288249
  0
VERTEX
  5
113
  8
0
 10
-8.7593515643587967
 20
22.78156747069799
 30
0.0
 42
-0.0655081170717398
  0
VERTEX
  5
114
  8
0
 10
-8.6880580551741957
 20
28.15673424188595
 30
0.0
 42
-0.018748457411966
  0
VERTEX
  5
115
  8
0
 10
-6.5542881356081182
 20
28.728476168667498
 30
0.0
 42
-0.0655081170717398
  0
VERTEX
  5
116
  8
0
 10
-3.8049627599353371
 20
24.109091949833061
 30
0.0
 42
-0.012816666228826
  0
VERTEX
  5
117
  8
0
 10
-2.5645803588549851
 20
24.27239139089874
 30
0.0
 42
-0.06550811707174
  0
SEQEND
  5
B9
  8
0
  0
CIRCLE
  5
119
  8
0
 10
12.0
 20
-12.0
 30
0.0
 40
2.7199999999999989
  0
CIRCLE
  5
11A
  8
0
 10
12.0
 20
12.0
 30
0.0
 40
2.7199999999999989
  0
CIRCLE
  5
11B
  8
0
 10
-12.0
 20
-12.0
 30
0.0
 40
2.7199999999999989
  0
CIRCLE
  5
11C
  8
0
 10
-12.0
 20
12.0
 30
0.0
 40
2.7199999999999989
  0
CIRCLE
  5
11D
  8
0
 10
0.0
 20
0.0
 30
0.0
 40
5.2199999999999998
  0
ENDSEC
  0
EOF
